<svg xmlns="http://www.w3.org/2000/svg" viewBox="0 0 192 192">
  <defs>
    <linearGradient id="teal" x1="0" y1="0" x2="1" y2="1">
      <stop offset="0" stop-color="#1bb3b3" />
      <stop offset="1" stop-color="#0f6f78" />
    </linearGradient>
  </defs>
  <rect width="192" height="192" rx="36" fill="#ffffff" />
  <path
    d="M96 29c-36 0-66 22-66 49h33c0-11 15-19 33-19s33 8 33 19c0 8-9 14-20 17l-10 3c-15 5-28 17-28 34v7h30v-5c0-6 4-10 9-12l11-3c26-8 45-25 45-47 0-27-30-49-66-49z"
    fill="url(#teal)"
    stroke="#14464f"
    stroke-width="4"
    stroke-linejoin="round"
  />
  <rect x="80" y="145" width="32" height="32" rx="10" fill="url(#teal)" stroke="#14464f" stroke-width="4" />
</svg>
